<svg width="20" height="16" viewBox="0 0 20 16" fill="none" xmlns="http://www.w3.org/2000/svg">
<path d="M19.2899 7.7863C19.3731 7.92047 19.3731 8.07953 19.2899 8.2137C18.7654 9.05978 17.5371 10.902 15.8712 12.5268C14.1915 14.1651 12.1513 15.5 10 15.5C7.84872 15.5 5.80849 14.1651 4.12878 12.5268C2.46294 10.902 1.23455 9.05978 0.710101 8.2137C0.626933 8.07953 0.626933 7.92047 0.710102 7.7863C1.23455 6.94022 2.46294 5.09802 4.12878 3.47322C5.80849 1.8349 7.84872 0.5 10 0.5C12.1513 0.5 14.1915 1.8349 15.8712 3.47322C17.5371 5.09802 18.7654 6.94022 19.2899 7.7863Z" fill="#A0A0A0" stroke="#4E4E4E"/>
</svg>
